<svg xmlns="http://www.w3.org/2000/svg" width="614.352" height="165.472" viewBox="0 0 162.547 43.781"><g style="display:inline"><g style="fill-opacity:1;fill:#fff"><g aria-label="SparK" style="font-style:normal;font-variant:normal;font-weight:400;font-stretch:normal;font-size:66.238px;line-height:1.25;font-family:DESIGNER;-inkscape-font-specification:'DESIGNER, Normal';font-variant-ligatures:normal;font-variant-caps:normal;font-variant-numeric:normal;font-variant-east-asian:normal;mix-blend-mode:normal;fill:#fff;fill-opacity:1;stroke:none;stroke-width:1.65597;stroke-miterlimit:4;stroke-dasharray:none;stroke-opacity:1"><path d="M21.267 18.337c-6.492-1.324-9.274-2.782-9.274-5.961 0-3.71 3.18-5.829 8.81-5.829 5.167 0 8.478 2.252 10.598 4.305l2.848-5.299C29.15.851 22.658.652 20.935.652c-9.604 0-14.837 5.233-14.837 11.923 0 5.564 3.246 9.67 14.705 11.591 5.63.994 9.406 3.047 9.406 6.36 0 3.907-3.378 6.424-9.605 6.424-4.835 0-9.538-2.252-12.982-6.094l-2.915 5.3c.596.728 5.83 6.69 15.765 6.69 9.67 0 15.632-5.432 15.632-12.586 0-6.955-4.968-10.068-14.837-11.923zM52.2 10.521h-9.87v4.637h11.062c3.312 0 6.425 1.722 6.425 5.895s-2.782 5.895-6.16 5.895H42.33V42.58h4.57V31.52h6.757c6.756 0 10.73-4.703 10.73-10.73 0-6.028-3.841-10.268-12.187-10.268zM79.29 9.793 64.057 42.58h4.902l3.113-6.888 7.22-15.831 7.154 15.83 3.113 6.89h4.968zM113.8 31.055c4.77-1.258 7.486-5.299 7.486-10.267 0-6.027-3.842-10.267-12.188-10.267h-9.87v4.637h11.46c3.312 0 6.027 1.722 6.027 5.895s-2.782 5.895-6.16 5.895H99.228V42.58h4.57V31.52h4.969l7.948 11.061h5.366zM140.495 21.318l18.149-20.202h-7.882l-15.699 18.149V1.115h-5.829v41.267h5.83V24.166l16.691 18.216h7.882z" style="font-style:normal;font-variant:normal;font-weight:400;font-stretch:normal;font-size:66.238px;font-family:DESIGNER;-inkscape-font-specification:'DESIGNER, Normal';font-variant-ligatures:normal;font-variant-caps:normal;font-variant-numeric:normal;font-variant-east-asian:normal;fill:#fff;fill-opacity:1;stroke:none;stroke-width:1.65597;stroke-miterlimit:4;stroke-dasharray:none;stroke-opacity:1"/></g></g></g></svg>