<svg width="614.35" height="165.47" viewBox="0 0 162.55 43.781" xmlns="http://www.w3.org/2000/svg"><g fill="#fff"><path d="M132.31 1.572c-.91 0-1.819.046-2.483.138-3.51.486-6.58 1.802-9.161 3.926-.488.4-.614.596-.614.944 0 .31.143.533.602.933.184.16.335.314.335.342 0 .028-.173.242-.386.474-.763.835-1.424 1.845-1.946 2.884l2.178.036c.191-.317.414-.695.642-.999.386-.515 1.028-1.235 1.1-1.235.028 0 .181.043.34.094.418.136 1.09.193 1.548.13.515-.07.935-.243 1.683-.695 1.138-.687 2.487-1.192 3.95-1.48.573-.114.853-.13 2.212-.13 1.36 0 1.638.016 2.21.13 1.465.288 2.814.793 3.951 1.48.778.47 1.17.626 1.773.709.543.075.777.052 1.391-.136l.42-.128.259.263c.671.685 1.496 1.896 1.963 2.88.658 1.393.92 2.519.988 4.25l.04 1.045h-1.578c-1.458 0-1.599.01-1.859.121a.77.77 0 0 0-.418.371c-.136.247-.137.327-.137 4.802s.002 4.556.137 4.802a.77.77 0 0 0 .418.371c.267.115.396.122 2.436.122 1.19 0 2.315-.028 2.512-.06 1.189-.201 2.149-1.054 2.374-2.11.04-.188.068-1.479.068-3.18 0-3.117-.013-3.24-.383-3.85-.24-.395-.763-.852-1.215-1.062l-.368-.171-.043-1.152c-.045-1.214-.146-1.985-.373-2.857-.491-1.89-1.526-3.787-2.86-5.246-.212-.232-.386-.445-.386-.473 0-.028.151-.182.335-.342.46-.4.603-.623.603-.933 0-.348-.127-.544-.614-.945-2.582-2.124-5.652-3.44-9.161-3.925-.664-.092-1.574-.138-2.483-.138zm1.986 14.09c-.315 0-.713.228-.857.493-.135.248-.136.309-.136 6.566 0 6.248.002 6.319.136 6.565a.786.786 0 0 0 .414.372c.349.153.526.154.881.001a.77.77 0 0 0 .418-.372c.136-.248.137-.309.137-6.566s0-6.318-.136-6.566c-.145-.265-.541-.493-.857-.493zm-3.048.694-1.909 1.97c-.006.945-.008 2.203-.008 4.395 0 6.248.001 6.319.136 6.566a.786.786 0 0 0 .413.37c.35.154.528.155.882.002a.77.77 0 0 0 .419-.372c.135-.248.136-.309.136-6.566 0-4.945-.001-6.01-.069-6.365zm7.02 2.836c-.315 0-.713.228-.857.492-.131.242-.136.344-.136 3.037 0 2.69.004 2.795.136 3.036a.787.787 0 0 0 .413.371c.35.154.528.154.883.002a.77.77 0 0 0 .418-.372c.131-.242.136-.343.136-3.037 0-2.693-.004-2.795-.136-3.037-.144-.264-.541-.492-.857-.492zm-10.94 1.208-1.969 2.03v.291c0 2.69.006 2.795.136 3.036a.787.787 0 0 0 .413.371c.35.154.528.154.883.002a.77.77 0 0 0 .417-.372c.132-.242.137-.343.137-3.037 0-1.256-.002-1.915-.017-2.321zm-4.023 4.15-1.29 1.33 1.25 1.274c.03-.314.038-1.088.04-2.604z"/><g style="font-variant-caps:normal;font-variant-east-asian:normal;font-variant-ligatures:normal;font-variant-numeric:normal;mix-blend-mode:normal" aria-label="SparK"><path d="M21.267 18.337c-6.491-1.325-9.273-2.782-9.273-5.961 0-3.71 3.18-5.83 8.81-5.83 5.166 0 8.478 2.253 10.597 4.306l2.849-5.299C29.15.85 22.658.652 20.936.652 11.33.652 6.099 5.884 6.099 12.575c0 5.564 3.245 9.67 14.705 11.592 5.63.993 9.405 3.047 9.405 6.358 0 3.908-3.378 6.426-9.604 6.426-4.836 0-9.538-2.253-12.983-6.094l-2.915 5.299c.597.728 5.83 6.69 15.765 6.69 9.671 0 15.632-5.432 15.632-12.585 0-6.955-4.967-10.068-14.837-11.923zM52.2 10.521h-9.87v4.637h11.063c3.311 0 6.425 1.722 6.425 5.895s-2.782 5.895-6.16 5.895H42.33V42.58h4.57V31.518h6.757c6.757 0 10.731-4.703 10.731-10.73S60.546 10.52 52.2 10.52zm27.091-.728L64.056 42.58h4.902l3.113-6.89 7.22-15.83 7.153 15.83 3.114 6.89h4.967zM113.8 31.055c4.77-1.258 7.485-5.299 7.485-10.267 0-6.028-3.842-10.267-12.188-10.267h-9.87v4.637h11.46c3.311 0 6.027 1.722 6.027 5.895s-2.782 5.895-6.16 5.895H99.227V42.58h4.57V31.518h4.968l7.949 11.062h5.365zm27.148-9.56 17.877-20.103h-7.882L135.06 19.264l.007-18.094-5.837-.055v41.266h5.83V24.166l16.692 18.215 8.067.277z" style="font-variant-caps:normal;font-variant-east-asian:normal;font-variant-ligatures:normal;font-variant-numeric:normal" transform="matrix(.78495 0 0 .72743 11.734 10.337)"/></g><path d="m113.17 11.148 23.231.201-1.953 2.02-21.278-.092z"/></g></svg>