<svg xmlns="http://www.w3.org/2000/svg" xmlns:xlink="http://www.w3.org/1999/xlink" width="614.35" height="165.47" viewBox="0 0 162.55 43.781"><defs><linearGradient id="a" x1="4.627" x2="159.83" y1="22.192" y2="22.709" gradientUnits="userSpaceOnUse"><stop stop-color="#f60" offset="0"/><stop stop-color="#d45703" offset="1"/></linearGradient><linearGradient xlink:href="#a" id="c" gradientUnits="userSpaceOnUse" x1="4.627" y1="22.192" x2="159.83" y2="22.709"/><linearGradient xlink:href="#a" id="b" gradientUnits="userSpaceOnUse" x1="4.627" y1="22.192" x2="159.83" y2="22.709"/></defs><path style="fill:#db5a02;fill-opacity:1;stroke-width:.0624053" d="M132.306 1.572c-.909 0-1.818.046-2.482.138-3.51.486-6.58 1.802-9.162 3.926-.487.4-.614.596-.614.944 0 .31.144.533.603.933.184.16.335.314.335.342 0 .029-.174.242-.386.474-.764.835-1.424 1.845-1.946 2.885l2.177.035c.192-.317.414-.695.642-.999.387-.515 1.028-1.235 1.1-1.235.029 0 .182.043.341.095.418.136 1.09.192 1.548.13.514-.07.935-.244 1.683-.696 1.137-.686 2.486-1.192 3.95-1.48.573-.114.852-.13 2.211-.13 1.36 0 1.639.016 2.211.13 1.464.288 2.813.794 3.95 1.48.778.47 1.17.626 1.774.709.542.075.777.052 1.39-.135l.421-.129.258.263c.672.685 1.497 1.896 1.963 2.88.659 1.393.92 2.52.988 4.25l.04 1.045h-1.577c-1.458 0-1.6.01-1.86.122a.77.77 0 0 0-.418.37c-.135.247-.136.327-.136 4.802 0 4.476.002 4.556.136 4.802a.77.77 0 0 0 .418.371c.267.115.397.122 2.437.122 1.189 0 2.314-.027 2.511-.06 1.189-.2 2.149-1.054 2.374-2.11.04-.188.068-1.478.068-3.18 0-3.116-.012-3.24-.383-3.85-.24-.394-.763-.851-1.215-1.062l-.368-.171-.043-1.152c-.045-1.214-.145-1.984-.372-2.857-.492-1.89-1.527-3.787-2.86-5.245-.213-.232-.386-.445-.386-.474 0-.028.15-.181.335-.342.459-.4.603-.623.603-.933 0-.348-.127-.543-.615-.944-2.582-2.124-5.651-3.44-9.161-3.926-.664-.092-1.573-.138-2.483-.138zm1.987 14.09c-.316 0-.713.229-.857.493-.136.248-.137.31-.137 6.566 0 6.248.002 6.32.136 6.566a.786.786 0 0 0 .414.371c.35.154.527.154.882.001a.77.77 0 0 0 .418-.371c.136-.248.137-.31.137-6.567 0-6.257-.001-6.318-.137-6.566-.144-.264-.54-.493-.856-.493zm-3.048.694-1.91 1.97c-.005.945-.007 2.203-.007 4.395 0 6.248 0 6.32.135 6.566a.786.786 0 0 0 .414.371c.349.154.527.154.882.001a.77.77 0 0 0 .418-.371c.136-.248.136-.31.136-6.567 0-4.945 0-6.01-.068-6.365zm7.02 2.836c-.316 0-.713.228-.857.493-.132.242-.136.343-.136 3.036 0 2.69.004 2.795.135 3.036a.787.787 0 0 0 .414.372c.35.153.527.154.882.001a.77.77 0 0 0 .418-.372c.132-.242.136-.343.136-3.037 0-2.693-.004-2.794-.136-3.036-.144-.265-.54-.493-.856-.493zm-10.94 1.208-1.97 2.031v.29c0 2.69.006 2.795.136 3.036a.787.787 0 0 0 .414.372c.349.153.527.154.882.001a.77.77 0 0 0 .418-.372c.131-.242.136-.343.136-3.037 0-1.255-.002-1.915-.017-2.32zm-4.024 4.15-1.289 1.33 1.249 1.274c.03-.314.038-1.088.04-2.604z"/><g style="font-variant-ligatures:normal;font-variant-caps:normal;font-variant-numeric:normal;font-variant-east-asian:normal;mix-blend-mode:normal;fill:url(#b)" aria-label="SparK" fill="url(#a)" transform="matrix(.78495 0 0 .72743 11.734 10.337)"><path d="M21.267 18.337c-6.491-1.325-9.273-2.782-9.273-5.961 0-3.71 3.18-5.83 8.81-5.83 5.166 0 8.478 2.253 10.597 4.306l2.849-5.299C29.15.85 22.658.652 20.936.652 11.33.652 6.099 5.884 6.099 12.575c0 5.564 3.245 9.67 14.705 11.592 5.63.993 9.405 3.047 9.405 6.358 0 3.908-3.378 6.426-9.604 6.426-4.836 0-9.538-2.253-12.983-6.094l-2.915 5.299c.597.728 5.83 6.69 15.765 6.69 9.671 0 15.632-5.432 15.632-12.585 0-6.955-4.967-10.068-14.837-11.923zM52.2 10.521h-9.87v4.637h11.063c3.311 0 6.425 1.722 6.425 5.895s-2.782 5.895-6.16 5.895H42.33V42.58h4.57V31.518h6.757c6.757 0 10.731-4.703 10.731-10.73S60.546 10.52 52.2 10.52Zm27.091-.728L64.056 42.58h4.902l3.113-6.89 7.22-15.83 7.153 15.83 3.114 6.89h4.967zM113.8 31.055c4.77-1.258 7.485-5.299 7.485-10.267 0-6.028-3.842-10.267-12.188-10.267h-9.87v4.637h11.46c3.311 0 6.027 1.722 6.027 5.895s-2.782 5.895-6.16 5.895H99.227V42.58h4.57V31.518h4.968l7.949 11.062h5.365zm27.148-9.56 17.876-20.103h-7.882L135.06 19.264l.007-18.094-5.837-.055v41.266h5.83V24.166l16.692 18.215 8.067.277z" style="font-variant-ligatures:normal;font-variant-caps:normal;font-variant-numeric:normal;font-variant-east-asian:normal;fill:url(#c)"/></g><path style="fill:#d65803;fill-opacity:1;stroke:none;stroke-width:0;stroke-miterlimit:4;stroke-dasharray:none;stroke-opacity:1" d="m113.173 11.148 23.23.202-1.952 2.019-21.278-.091z"/></svg>