<svg width="614.35" height="165.47" viewBox="0 0 162.55 43.781" xmlns="http://www.w3.org/2000/svg"><defs><linearGradient id="a" x1="4.627" x2="159.83" y1="22.192" y2="22.709" gradientUnits="userSpaceOnUse"><stop stop-color="#f60" offset="0"/><stop stop-color="#d45703" offset="1"/></linearGradient></defs><g style="font-variant-caps:normal;font-variant-east-asian:normal;font-variant-ligatures:normal;font-variant-numeric:normal;mix-blend-mode:normal" aria-label="SparK" fill="url(#a)"><path d="M21.267 18.337c-6.491-1.325-9.273-2.782-9.273-5.961 0-3.71 3.18-5.83 8.81-5.83 5.166 0 8.478 2.253 10.597 4.306l2.849-5.299C29.15.85 22.658.652 20.936.652 11.33.652 6.099 5.884 6.099 12.575c0 5.564 3.245 9.67 14.705 11.592 5.63.993 9.405 3.047 9.405 6.358 0 3.908-3.378 6.426-9.604 6.426-4.836 0-9.538-2.253-12.983-6.094l-2.915 5.299c.597.728 5.83 6.69 15.765 6.69 9.671 0 15.632-5.432 15.632-12.585 0-6.955-4.967-10.068-14.837-11.923zM52.2 10.521h-9.87v4.637h11.063c3.311 0 6.425 1.722 6.425 5.895s-2.782 5.895-6.16 5.895H42.33V42.58h4.57V31.518h6.757c6.757 0 10.731-4.703 10.731-10.73S60.546 10.52 52.2 10.52zM79.291 9.793 64.056 42.58h4.902l3.113-6.89 7.22-15.83 7.153 15.83 3.114 6.89h4.967zM113.8 31.055c4.77-1.258 7.485-5.299 7.485-10.267 0-6.028-3.842-10.267-12.188-10.267h-9.87v4.637h11.46c3.311 0 6.027 1.722 6.027 5.895s-2.782 5.895-6.16 5.895H99.227V42.58h4.57V31.518h4.968l7.949 11.062h5.365zM140.49 21.318l18.149-20.203h-7.882l-15.698 18.149V1.115h-5.83v41.266h5.83V24.166l16.692 18.215h7.882z" style="font-variant-caps:normal;font-variant-east-asian:normal;font-variant-ligatures:normal;font-variant-numeric:normal"/></g></svg>